<svg xmlns="http://www.w3.org/2000/svg" version="1.1" xmlns:xlink="http://www.w3.org/1999/xlink" xmlns:svgjs="http://svgjs.com/svgjs" width="1780" height="1024" preserveAspectRatio="none" viewBox="0 0 1780 1024">
    <g mask="url(&quot;#SvgjsMask1067&quot;)" fill="none">
        <rect width="1780" height="1024" x="0" y="0" fill="rgba(17, 17, 17, 1)"></rect>
        <path d="M0,881.93C160.958,908.862,296.012,762.185,429.413,668.179C557.513,577.908,690.694,487.655,759.383,346.799C828.961,204.12,871.58,30.439,812.2,-116.777C754.764,-259.172,578.535,-301.339,459.056,-397.775C364.572,-474.037,290.923,-568.09,183.329,-624.363C55.277,-691.336,-78.332,-774.796,-221.277,-753.599C-369.591,-731.606,-495.397,-627.463,-588.471,-509.913C-679.253,-395.258,-704.554,-248.758,-734.363,-105.585C-766.08,46.752,-847.974,217.309,-767.624,350.562C-686.536,485.04,-475.146,449.054,-346.029,538.432C-209.635,632.847,-163.61,854.555,0,881.93" fill="#0b0b0b"></path>
        <path d="M1780 1424.083C1872.22 1436.3020000000001 1972.568 1495.621 2052.391 1447.849 2131.938 1400.242 2109.783 1275.617 2159.167 1197.16 2219.935 1100.618 2379.569 1052.64 2372.831 938.764 2366.275 827.975 2210.569 797.2139999999999 2130.927 719.9200000000001 2060.127 651.2080000000001 2019.755 552.894 1930.949 509.913 1834.33 463.15099999999995 1721.555 444.092 1617.791 471.568 1512.846 499.35699999999997 1433.135 579.806 1360.908 660.855 1287.843 742.845 1217.894 832.258 1199.828 940.5840000000001 1181.567 1050.078 1191.7060000000001 1174.23 1260.8020000000001 1261.1100000000001 1327.1970000000001 1344.594 1448.585 1349.388 1550.356 1381.333 1626.181 1405.134 1701.215 1413.645 1780 1424.083" fill="#171717"></path>
    </g>
    <defs>
        <mask id="SvgjsMask1067">
            <rect width="1780" height="1024" fill="#ffffff"></rect>
        </mask>
    </defs>
</svg>