<svg xmlns="http://www.w3.org/2000/svg" version="1.1" xmlns:xlink="http://www.w3.org/1999/xlink" xmlns:svgjs="http://svgjs.com/svgjs" width="1440" height="560" preserveAspectRatio="none" viewBox="0 0 1440 560">
    <g mask="url(&quot;#SvgjsMask1000&quot;)" fill="none">
        <rect width="1440" height="560" x="0" y="0" fill="#0e2a47"></rect>
        <path d="M -193.50966717501342,161 C -97.51,197.6 94.49,345.2 286.4903328249866,344 C 478.49,342.8 574.49,164.4 766.4903328249866,155 C 958.49,145.6 1054.49,308.4 1246.4903328249866,297 C 1438.49,285.6 1687.79,68.2 1726.4903328249866,98 C 1765.19,127.8 1497.3,376.4 1440,446" stroke="rgba(51, 121, 194, 0.58)" stroke-width="2"></path>
        <path d="M -823.8792037581438,413 C -727.88,343 -535.88,63.4 -343.8792037581438,63 C -151.88,62.6 -55.88,389.4 136.12079624185623,411 C 328.12,432.6 424.12,170.8 616.1207962418562,171 C 808.12,171.2 931.34,425.6 1096.1207962418562,412 C 1260.9,398.4 1371.22,164.8 1440,103" stroke="rgba(51, 121, 194, 0.58)" stroke-width="2"></path>
        <path d="M -284.735743574781,140 C -188.74,202.6 3.26,436 195.264256425219,453 C 387.26,470 483.26,221.6 675.264256425219,225 C 867.26,228.4 963.26,477.2 1155.264256425219,470 C 1347.26,462.8 1578.32,205 1635.264256425219,189 C 1692.21,173 1479.05,349.8 1440,390" stroke="rgba(51, 121, 194, 0.58)" stroke-width="2"></path>
        <path d="M -451.29411542725484,355 C -355.29,324 -163.29,202 28.70588457274515,200 C 220.71,198 316.71,346.8 508.70588457274516,345 C 700.71,343.2 796.71,192.4 988.7058845727452,191 C 1180.71,189.6 1378.45,331.6 1468.7058845727452,338 C 1558.96,344.4 1445.74,246 1440,223" stroke="rgba(51, 121, 194, 0.58)" stroke-width="2"></path>
    </g>
    <defs>
        <mask id="SvgjsMask1000">
            <rect width="1440" height="560" fill="#ffffff"></rect>
        </mask>
    </defs>
</svg>
