<svg xmlns="http://www.w3.org/2000/svg" version="1.1" xmlns:xlink="http://www.w3.org/1999/xlink" xmlns:svgjs="http://svgjs.com/svgjs" width="1440" height="560" preserveAspectRatio="none" viewBox="0 0 1440 560">
    <g mask="url(&quot;#SvgjsMask1000&quot;)" fill="none">
        <rect width="1440" height="560" x="0" y="0" fill="#0e2a47"></rect>
        <path d="M0,457.391C84.234,448.656,122.566,347.31,192.667,299.796C260.312,253.947,375.539,261.027,403.172,184.122C431.403,105.554,349.851,31.102,316.752,-45.542C292.723,-101.182,267.102,-152.352,235.523,-204.082C197.247,-266.782,182.425,-360.537,111.904,-381.109C41.358,-401.688,-18.421,-323.127,-87.601,-298.342C-151.398,-275.486,-232.137,-290.752,-278.435,-241.265C-324.894,-191.606,-313.809,-113.821,-323.24,-46.475C-332.633,20.599,-350.898,86.859,-333.556,152.33C-314.261,225.176,-275.79,291.751,-220.181,342.609C-157.842,399.622,-84.028,466.105,0,457.391" fill="#0b2239"></path>
        <path d="M1440 1186.768C1559.004 1201.9470000000001 1677.535 1151.5 1777.7939999999999 1085.618 1877.414 1020.156 1972.6860000000001 932.345 2002.7269999999999 816.989 2031.467 706.629 1939.671 602.951 1933.1390000000001 489.097 1925.685 359.164 2028.0349999999999 219.82600000000002 1962.033 107.656 1897.003-2.86099999999999 1742.646-16.06899999999996 1618.052-46.389999999999986 1498.485-75.48800000000006 1374.97-98.25699999999995 1256.785-63.972999999999956 1138.394-29.62900000000002 1039.609 49.966999999999985 960.367 144.39499999999998 881.998 237.78300000000002 801.121 347.672 809.264 469.31399999999996 817.188 587.695 937.546 660.3389999999999 1001.5899999999999 760.215 1054.6390000000001 842.9449999999999 1082.949 937.442 1153.388 1005.976 1236.021 1086.374 1325.636 1172.181 1440 1186.768" fill="#113255"></path>
    </g>
    <defs>
        <mask id="SvgjsMask1000">
            <rect width="1440" height="560" fill="#ffffff"></rect>
        </mask>
    </defs>
</svg>